<?xml version="1.0" encoding="UTF-8" standalone="no"?>
<!DOCTYPE svg PUBLIC "-//W3C//DTD SVG 1.1//EN" "http://www.w3.org/Graphics/SVG/1.1/DTD/svg11.dtd">
<svg width="100%" height="100%" viewBox="0 0 100 100" version="1.1" xmlns="http://www.w3.org/2000/svg" xmlns:xlink="http://www.w3.org/1999/xlink" xml:space="preserve" xmlns:serif="http://www.serif.com/" style="fill-rule:evenodd;clip-rule:evenodd;stroke-linejoin:round;stroke-miterlimit:2;">
    <rect id="scale-up" x="0" y="0" width="100" height="100" style="fill:none;"/>
    <path d="M90.5,5C92.984,5 95,7.016 95,9.5L95,90.5C95,92.984 92.984,95 90.5,95L9.5,95C7.016,95 5,92.984 5,90.5L5,9.5C5,7.016 7.016,5 9.5,5L90.5,5ZM27.632,44.475L18.197,44.475C15.598,44.475 13.487,46.585 13.487,49.185L13.487,58.605C13.487,61.204 15.598,63.315 18.197,63.315L27.632,63.315C30.231,63.315 32.342,61.204 32.342,58.605L32.342,49.185C32.342,46.585 30.231,44.475 27.632,44.475ZM54.604,44.475L45.17,44.475C42.57,44.475 40.46,46.585 40.46,49.185L40.46,58.605C40.46,61.204 42.57,63.315 45.17,63.315L54.604,63.315C57.203,63.315 59.314,61.204 59.314,58.605L59.314,49.185C59.314,46.585 57.204,44.475 54.604,44.475ZM81.576,44.475L72.142,44.475C69.542,44.475 67.432,46.585 67.432,49.185L67.432,58.605C67.432,61.204 69.542,63.315 72.142,63.315L81.576,63.315C84.176,63.315 86.286,61.204 86.286,58.605L86.286,49.185C86.286,46.585 84.176,44.475 81.576,44.475ZM70.123,14.208L16.607,14.208C15.437,14.208 14.487,15.158 14.487,16.327L14.487,33.282C14.487,34.452 15.437,35.402 16.607,35.402L70.123,35.402C71.293,35.402 72.242,34.452 72.242,33.282L72.242,16.327C72.242,15.158 71.293,14.208 70.123,14.208Z" style="fill:rgb(102,102,102);fill-rule:nonzero;"/>
</svg>
