<?xml version="1.0" encoding="UTF-8" standalone="no"?>
<!DOCTYPE svg PUBLIC "-//W3C//DTD SVG 1.1//EN" "http://www.w3.org/Graphics/SVG/1.1/DTD/svg11.dtd">
<svg width="100%" height="100%" viewBox="0 0 100 100" version="1.1" xmlns="http://www.w3.org/2000/svg" xmlns:xlink="http://www.w3.org/1999/xlink" xml:space="preserve" xmlns:serif="http://www.serif.com/" style="fill-rule:evenodd;clip-rule:evenodd;stroke-linejoin:round;stroke-miterlimit:2;">
    <rect id="scale-up" x="0" y="0" width="100" height="100" style="fill:none;"/>
    <path d="M69.242,80.223L69.242,90.691C69.242,92.624 67.675,94.191 65.742,94.191L61.195,94.191C59.262,94.191 57.695,92.624 57.695,90.691L57.695,56.332C57.695,54.399 59.262,52.832 61.195,52.832L74.156,52.832C76.711,52.832 78.661,52.972 79.958,53.208C82.214,53.584 84.091,54.332 85.616,55.387C87.225,56.5 88.543,58.039 89.523,60.044C90.447,61.934 90.922,64.007 90.922,66.27C90.922,70.128 89.666,73.383 87.21,76.056C84.856,78.617 80.706,80.223 74.555,80.223L69.242,80.223ZM20.684,75.226L20.684,90.691C20.684,92.624 19.117,94.191 17.184,94.191L12.824,94.191C10.891,94.191 9.324,92.624 9.324,90.691L9.324,56.332C9.324,54.399 10.891,52.832 12.824,52.832L17.488,52.832C18.657,52.832 19.748,53.415 20.397,54.386L32.035,71.782L32.035,56.332C32.035,54.399 33.602,52.832 35.535,52.832L39.895,52.832C41.828,52.832 43.395,54.399 43.395,56.332L43.395,90.691C43.395,92.624 41.828,94.191 39.895,94.191L35.23,94.191C34.062,94.191 32.97,93.608 32.321,92.636L20.684,75.226ZM69.242,69.168L74.625,69.168C76.446,69.168 77.797,69.086 78.562,68.408C79.085,67.944 79.234,67.251 79.234,66.41C79.234,65.766 79.116,65.203 78.791,64.745C78.549,64.405 78.236,64.174 77.876,64.074C77.273,63.914 76.156,63.887 74.531,63.887L69.242,63.887L69.242,69.168ZM34.316,46.212C31.823,47.252 29.136,47.777 26.254,47.777C22.487,47.777 19.075,46.855 16.009,45.038C12.899,43.196 10.498,40.611 8.818,37.272C7.217,34.086 6.395,30.503 6.395,26.512C6.395,22.552 7.214,18.951 8.82,15.703C10.519,12.265 12.951,9.661 16.09,7.865C19.148,6.114 22.565,5.223 26.348,5.223C30.18,5.223 33.631,6.151 36.709,7.973C39.847,9.83 42.243,12.425 43.889,15.765C45.451,18.935 46.254,22.506 46.254,26.488C46.254,29.779 45.736,32.735 44.736,35.362C44.228,36.697 43.594,37.948 42.833,39.114C43.457,39.433 44.061,39.704 44.645,39.924C45.536,40.26 46.251,40.944 46.627,41.819C47.002,42.694 47.005,43.684 46.635,44.561L45.299,47.725C44.575,49.439 42.637,50.287 40.886,49.656C38.693,48.864 36.5,47.721 34.316,46.212ZM69.055,33.261L69.055,43.691C69.055,45.624 67.488,47.191 65.555,47.191L61.008,47.191C59.075,47.191 57.508,45.624 57.508,43.691L57.508,9.332C57.508,7.399 59.075,5.832 61.008,5.832L65.555,5.832C67.488,5.832 69.055,7.399 69.055,9.332L69.055,17.93L80.144,6.855C80.8,6.2 81.69,5.832 82.617,5.832L88.781,5.832C90.208,5.832 91.492,6.698 92.026,8.021C92.561,9.344 92.239,10.858 91.213,11.85L79.001,23.644L92.233,41.616C93.015,42.679 93.133,44.092 92.538,45.271C91.942,46.449 90.734,47.191 89.414,47.191L83.414,47.191C82.275,47.191 81.207,46.637 80.551,45.705L70.681,31.675L69.055,33.261ZM33.324,32.756C34.188,31.084 34.566,28.982 34.566,26.488C34.566,24.262 34.219,22.312 33.463,20.648C32.815,19.224 31.88,18.107 30.632,17.319C29.368,16.522 27.945,16.137 26.371,16.137C23.998,16.137 22.018,16.921 20.455,18.545C18.754,20.311 18.082,23.003 18.082,26.512C18.082,29.928 18.778,32.597 20.468,34.424C21.256,35.276 22.159,35.902 23.174,36.308L24.246,33.092C24.836,31.322 26.712,30.326 28.509,30.829C30.293,31.328 31.896,31.974 33.324,32.756Z" style="fill:rgb(102,102,102);fill-rule:nonzero;"/>
</svg>
