<?xml version="1.0" encoding="UTF-8" standalone="no"?><!DOCTYPE svg PUBLIC "-//W3C//DTD SVG 1.1//EN" "http://www.w3.org/Graphics/SVG/1.1/DTD/svg11.dtd"><svg width="100%" height="100%" viewBox="0 0 100 100" version="1.1" xmlns="http://www.w3.org/2000/svg" xmlns:xlink="http://www.w3.org/1999/xlink" xml:space="preserve" xmlns:serif="http://www.serif.com/" style="fill-rule:evenodd;clip-rule:evenodd;stroke-linejoin:round;stroke-miterlimit:2;"><rect id="scale-up" x="0" y="0" width="100" height="100" style="fill:none;"/><path d="M27,71.5c0,-3.036 -2.464,-5.5 -5.5,-5.5l-11,0c-3.036,0 -5.5,2.464 -5.5,5.5l0,11c0,3.036 2.464,5.5 5.5,5.5l11,0c3.036,0 5.5,-2.464 5.5,-5.5l0,-11Zm68,0c0,-3.036 -2.464,-5.5 -5.5,-5.5l-51,0c-3.036,0 -5.5,2.464 -5.5,5.5l0,11c0,3.036 2.464,5.5 5.5,5.5l51,0c3.036,0 5.5,-2.464 5.5,-5.5l0,-11Zm-68,-27c0,-3.036 -2.464,-5.5 -5.5,-5.5l-11,0c-3.036,0 -5.5,2.464 -5.5,5.5l0,11c0,3.036 2.464,5.5 5.5,5.5l11,0c3.036,0 5.5,-2.464 5.5,-5.5l0,-11Zm68,0c0,-3.036 -2.464,-5.5 -5.5,-5.5l-51,0c-3.036,0 -5.5,2.464 -5.5,5.5l0,11c0,3.036 2.464,5.5 5.5,5.5l51,0c3.036,0 5.5,-2.464 5.5,-5.5l0,-11Zm-68,-27c0,-3.036 -2.464,-5.5 -5.5,-5.5l-11,0c-3.036,0 -5.5,2.464 -5.5,5.5l0,11c0,3.036 2.464,5.5 5.5,5.5l11,0c3.036,0 5.5,-2.464 5.5,-5.5l0,-11Zm68,0c0,-3.036 -2.464,-5.5 -5.5,-5.5l-51,0c-3.036,0 -5.5,2.464 -5.5,5.5l0,11c0,3.036 2.464,5.5 5.5,5.5l51,0c3.036,0 5.5,-2.464 5.5,-5.5l0,-11Z" style="fill:#9f9f9f;"/></svg>