<?xml version="1.0" encoding="UTF-8" standalone="no"?>
<!DOCTYPE svg PUBLIC "-//W3C//DTD SVG 1.1//EN" "http://www.w3.org/Graphics/SVG/1.1/DTD/svg11.dtd">
<svg width="100%" height="100%" viewBox="0 0 100 100" version="1.1" xmlns="http://www.w3.org/2000/svg" xmlns:xlink="http://www.w3.org/1999/xlink" xml:space="preserve" xmlns:serif="http://www.serif.com/" style="fill-rule:evenodd;clip-rule:evenodd;stroke-linejoin:round;stroke-miterlimit:1.41421;">
    <path d="M70,68.01l-1.156,-1.156c-0.496,-0.496 -0.696,-1.217 -0.526,-1.898c0.169,-0.681 0.684,-1.223 1.355,-1.429c3.781,-1.156 10.073,-3.08 14.027,-4.289c0.707,-0.216 1.476,-0.025 1.999,0.498c0.523,0.523 0.715,1.292 0.498,1.999c-1.209,3.955 -3.133,10.246 -4.289,14.027c-0.205,0.671 -0.748,1.186 -1.429,1.356c-0.681,0.169 -1.401,-0.03 -1.898,-0.527l-1.266,-1.265l-4.299,4.299c0.278,0.953 0.427,1.962 0.427,3.004c0,5.932 -4.816,10.747 -10.747,10.747c-5.932,0 -10.747,-4.815 -10.747,-10.747c0,-5.931 4.815,-10.747 10.747,-10.747c1.042,0 2.051,0.149 3.004,0.427l4.3,-4.299Zm1.436,-48.653l-1.948,-1.948c-0.497,-0.497 -0.696,-1.217 -0.527,-1.898c0.17,-0.682 0.685,-1.224 1.356,-1.429c4.47,-1.367 12.583,-3.848 17.266,-5.28c0.707,-0.217 1.476,-0.025 1.999,0.498c0.523,0.523 0.715,1.292 0.499,1.999c-1.433,4.684 -3.914,12.797 -5.281,17.266c-0.205,0.672 -0.747,1.186 -1.428,1.356c-0.682,0.17 -1.402,-0.03 -1.898,-0.526l-2.107,-2.107l-9.383,9.384c0.456,1.316 0.704,2.729 0.704,4.2c0,7.084 -5.751,12.836 -12.835,12.836c-7.084,0 -12.836,-5.752 -12.836,-12.836c0,-7.084 5.752,-12.835 12.836,-12.835c1.47,0 2.884,0.247 4.2,0.704l9.383,-9.384Zm-43.831,-1.54l-1.316,-1.315c-0.496,-0.497 -0.696,-1.217 -0.526,-1.898c0.17,-0.681 0.684,-1.224 1.356,-1.429c3.841,-1.175 10.283,-3.145 14.301,-4.373c0.707,-0.217 1.476,-0.025 1.999,0.498c0.523,0.523 0.714,1.292 0.498,1.999c-1.229,4.018 -3.199,10.46 -4.373,14.301c-0.206,0.671 -0.748,1.186 -1.429,1.356c-0.681,0.17 -1.402,-0.03 -1.898,-0.527l-1.442,-1.442l-7.214,7.214c0.249,0.889 0.383,1.826 0.383,2.794c0,5.711 -4.637,10.348 -10.348,10.348c-5.71,0 -10.347,-4.637 -10.347,-10.348c0,-5.71 4.637,-10.347 10.347,-10.347c0.969,0 1.906,0.133 2.795,0.383l7.214,-7.214Z"/>
</svg>
