<?xml version="1.0" encoding="UTF-8" standalone="no"?>
<!DOCTYPE svg PUBLIC "-//W3C//DTD SVG 1.1//EN" "http://www.w3.org/Graphics/SVG/1.1/DTD/svg11.dtd">
<svg width="100%" height="100%" viewBox="0 0 100 100" version="1.1" xmlns="http://www.w3.org/2000/svg" xmlns:xlink="http://www.w3.org/1999/xlink" xml:space="preserve" xmlns:serif="http://www.serif.com/" style="fill-rule:evenodd;clip-rule:evenodd;stroke-linejoin:round;stroke-miterlimit:1.41421;">
    <path d="M50,5.267c24.836,0 45,20.163 45,45c0,24.836 -20.164,45 -45,45c-24.836,0 -45,-20.164 -45,-45c0,-24.837 20.164,-45 45,-45Zm0,10.074c19.276,0 34.926,15.65 34.926,34.926c0,19.276 -15.65,34.925 -34.926,34.925c-19.276,0 -34.926,-15.649 -34.926,-34.925c0,-19.276 15.65,-34.926 34.926,-34.926Zm0,24.916c5.525,0 10.01,4.485 10.01,10.01c0,5.524 -4.485,10.009 -10.01,10.009c-5.525,0 -10.01,-4.485 -10.01,-10.009c0,-5.525 4.485,-10.01 10.01,-10.01Z"/>
</svg>
