<?xml version="1.0" encoding="UTF-8" standalone="no"?>
<!DOCTYPE svg PUBLIC "-//W3C//DTD SVG 1.1//EN" "http://www.w3.org/Graphics/SVG/1.1/DTD/svg11.dtd">
<svg width="100%" height="100%" viewBox="0 0 100 100" version="1.1" xmlns="http://www.w3.org/2000/svg" xmlns:xlink="http://www.w3.org/1999/xlink" xml:space="preserve" xmlns:serif="http://www.serif.com/" style="fill-rule:evenodd;clip-rule:evenodd;stroke-linejoin:round;stroke-miterlimit:1.41421;">
    <path d="M51.054,7.799c19.703,0.187 38.266,15.311 42.029,34.929c2.67,13.926 -2.052,29.039 -12.219,38.966c-11.884,11.604 -30.731,15.464 -46.367,9.072c-13.788,-5.638 -24.182,-18.867 -26.342,-33.606c-2.661,-18.161 7.714,-37.528 24.421,-45.334c5.759,-2.691 12.095,-4.047 18.478,-4.027Zm-0.505,7.999c-15.943,0.152 -30.916,12.285 -34.137,28.009c-4.496,21.941 15.878,46.175 40.789,41.558c14.257,-2.641 26.178,-15.011 28.281,-29.364c2.844,-19.409 -12.938,-39.73 -34.025,-40.197c-0.303,-0.005 -0.605,-0.007 -0.908,-0.006Zm4.313,26.909c2.255,0 4.086,1.83 4.086,4.085l0,26.906c0,2.255 -1.831,4.086 -4.086,4.086l-8.172,0c-2.255,0 -4.086,-1.831 -4.086,-4.086l0,-26.906c0,-2.255 1.831,-4.085 4.086,-4.085l8.172,0Zm-4.086,-21.331c4.51,0 8.172,3.661 8.172,8.172c0,4.51 -3.662,8.171 -8.172,8.171c-4.51,0 -8.172,-3.661 -8.172,-8.171c0,-4.511 3.662,-8.172 8.172,-8.172Z" style="fill-rule:nonzero;"/>
</svg>
