<?xml version="1.0" encoding="UTF-8" standalone="no"?>
<!DOCTYPE svg PUBLIC "-//W3C//DTD SVG 1.1//EN" "http://www.w3.org/Graphics/SVG/1.1/DTD/svg11.dtd">
<svg width="100%" height="100%" viewBox="0 0 100 100" version="1.1" xmlns="http://www.w3.org/2000/svg" xmlns:xlink="http://www.w3.org/1999/xlink" xml:space="preserve" xmlns:serif="http://www.serif.com/" style="fill-rule:evenodd;clip-rule:evenodd;stroke-linejoin:round;stroke-miterlimit:1.41421;">
    <path d="M68.977,100.267c-0.378,-0.872 -0.788,-1.833 -1.183,-2.769c-0.74,-1.886 0.693,-4.172 2.874,-4.13c2.637,0.119 4.03,3.917 4.881,6.899l-6.572,0Zm-6.159,-25.472c3.279,0.117 4.232,5.078 5.573,8.512c0,0 0.246,5.398 -3.634,4.169c-1.961,-0.621 -2.359,-2.968 -2.359,-2.968c-0.195,-0.462 -0.394,-0.923 -0.592,-1.384c-0.329,-0.761 -0.659,-1.522 -0.991,-2.282c-0.563,-1.289 -1.309,-2.579 -0.947,-3.862c0.364,-1.289 1.429,-2.194 2.95,-2.185Zm-58.816,-11.614c0.072,-0.029 0.147,-0.056 0.223,-0.081c0.445,-0.144 0.889,-0.29 1.334,-0.436c1.632,-0.542 0.184,-0.084 1.754,-0.436c2.903,0.096 4.268,4.64 0.074,6.145c-2.142,0.703 -2.085,0.614 -3.385,0.69l0,-5.882Zm96,7.974c-0.407,-0.046 -0.825,-0.161 -1.239,-0.356l-0.013,-0.007c-2.952,-0.626 -7.059,0.131 -8.153,-3.194c-0.606,-1.843 0.749,-3.989 2.97,-3.935c2.012,0.112 4.194,0.675 6.435,1.233l0,6.259Zm-37.258,-3.559l-25.599,0c-0.396,-0.032 -0.471,-0.13 -0.5,-0.5l0,-33.659c0.031,-0.396 0.129,-0.47 0.5,-0.5l24.956,0c0.026,0.002 0.053,0.005 0.079,0.007c0.354,0.085 0.395,0.157 0.421,0.493l0,5.694c-0.031,0.396 -0.129,0.471 -0.5,0.5l-17.66,0l0,6.462l16.398,0c0.396,0.031 0.47,0.13 0.5,0.5l0,5.671c-0.032,0.396 -0.13,0.471 -0.5,0.5l-16.398,0l0,8.161l18.303,0c0.397,0.031 0.471,0.13 0.5,0.5l0,5.671c-0.031,0.395 -0.129,0.47 -0.5,0.5Zm11.251,-8.32c2.367,0.131 4.969,0.886 7.625,1.525c0,0 2.791,1.114 2.489,3.381c-0.263,1.969 -2.644,3.299 -4.917,2.229l-0.013,-0.007c-2.952,-0.626 -7.06,0.131 -8.153,-3.194c-0.606,-1.842 0.74,-3.989 2.969,-3.934Zm-48.861,-2.352c3.135,0.123 4.08,5.905 -0.466,6.239l-0.031,0.001c-3.079,0.949 -4.855,2.757 -7.064,-0.257c-0.18,-0.246 -0.322,-0.52 -0.421,-0.808c-1.006,-2.962 1.77,-3.591 6.892,-5.017c0,0 0.656,-0.162 1.09,-0.158Zm74.868,-10.727l0,5.929c-1.778,-0.157 -5.268,0.814 -7.109,-0.229c-2.141,-1.212 -1.813,-5.399 1.329,-5.606c1.925,-0.067 3.86,-0.09 5.78,-0.094Zm-20.471,-0.002c3.115,0.022 3.01,0.573 3.52,2.046c0.714,2.064 -1.24,4.643 -4.185,3.957c-1.748,-0.466 -6.333,1.112 -8.214,-0.817c-1.567,-1.607 -0.567,-4.921 1.998,-5.09c2.294,-0.079 4.602,-0.097 6.881,-0.096Zm-62.334,-13.266c2.547,0.089 4.902,1.794 7.819,3.202c0,0 3.749,3.445 0.411,5.404c-1.162,0.682 -2.801,0.442 -3.945,-0.414c0,0 -9.095,-1.965 -7.08,-6.427c0.478,-1.059 1.594,-1.772 2.795,-1.765Zm-13.195,-5.228c2.212,0.394 0.344,-0.136 2.912,1.104c0,0 2.542,1.726 1.687,3.908c-0.727,1.858 -2.89,2.588 -4.599,1.847l0,-6.859Zm73.879,-15.681c2.175,0.097 3.696,2.757 2.38,4.716c-2.402,3.314 -4.531,6.928 -7.396,9.791c-1.929,1.926 -6.904,-0.383 -4.581,-3.84c2.317,-3.198 4.745,-6.314 7.119,-9.471c0.602,-0.772 1.275,-1.208 2.478,-1.196Zm-50.527,1.659c2.894,0.123 4.329,3.934 6.478,7.366c0,0 1.289,5.056 -2.641,4.787c-1.537,-0.105 -2.364,-0.694 -3.021,-2.486c-0.812,-2.423 -5.337,-5.824 -3.277,-8.498c0.584,-0.759 1.329,-1.184 2.461,-1.169Zm-7.556,-13.412c0.922,1.359 1.776,3.06 2.789,4.676c0,0 1.286,5.06 -2.643,4.787c-1.331,-0.092 -2.44,-0.906 -3.02,-2.487c-0.653,-1.952 -3.852,-4.591 -3.821,-6.976l6.695,0Zm73.561,0c-1.937,2.487 -3.758,5.133 -6.008,7.262c-2.008,1.9 -6.947,-0.642 -4.439,-4.009c0.869,-1.094 1.753,-2.176 2.643,-3.253l7.804,0Z" style="fill-rule:nonzero;"/>
</svg>
