<?xml version="1.0" encoding="UTF-8" standalone="no"?>
<!DOCTYPE svg PUBLIC "-//W3C//DTD SVG 1.1//EN" "http://www.w3.org/Graphics/SVG/1.1/DTD/svg11.dtd">
<svg width="100%" height="100%" viewBox="0 0 120 100" version="1.1" xmlns="http://www.w3.org/2000/svg" xmlns:xlink="http://www.w3.org/1999/xlink" xml:space="preserve" xmlns:serif="http://www.serif.com/" style="fill-rule:evenodd;clip-rule:evenodd;stroke-linejoin:round;stroke-miterlimit:1.41421;">
    <g>
        <path d="M11.76,54.506c-1.461,-0.914 -2.349,-2.516 -2.349,-4.239c0,-1.724 0.888,-3.326 2.349,-4.24c9.048,-5.658 25.029,-15.651 34.499,-21.573c1.541,-0.964 3.484,-1.015 5.074,-0.134c1.59,0.881 2.577,2.556 2.577,4.374c0,11.583 0,31.562 0,43.145c0,1.818 -0.987,3.493 -2.577,4.374c-1.59,0.881 -3.533,0.83 -5.074,-0.134c-9.47,-5.922 -25.451,-15.915 -34.499,-21.573Z"/>
        <path d="M108.243,46.027c1.461,0.914 2.349,2.516 2.349,4.24c0,1.723 -0.888,3.325 -2.349,4.239c-9.049,5.658 -25.029,15.651 -34.499,21.573c-1.541,0.964 -3.484,1.015 -5.074,0.134c-1.591,-0.881 -2.577,-2.556 -2.577,-4.374c0,-11.583 0,-31.562 0,-43.145c0,-1.818 0.986,-3.493 2.577,-4.374c1.59,-0.881 3.533,-0.83 5.074,0.134c9.47,5.922 25.45,15.915 34.499,21.573Z"/>
    </g>
</svg>
