<?xml version="1.0" encoding="UTF-8" standalone="no"?>
<!DOCTYPE svg PUBLIC "-//W3C//DTD SVG 1.1//EN" "http://www.w3.org/Graphics/SVG/1.1/DTD/svg11.dtd">
<svg width="100%" height="100%" viewBox="0 0 100 100" version="1.1" xmlns="http://www.w3.org/2000/svg" xmlns:xlink="http://www.w3.org/1999/xlink" xml:space="preserve" xmlns:serif="http://www.serif.com/" style="fill-rule:evenodd;clip-rule:evenodd;stroke-linejoin:round;stroke-miterlimit:1.41421;">
    <path d="M92.5,5.267c0.688,0 1.311,0.278 1.763,0.728l0.009,0.008c0.45,0.453 0.728,1.076 0.728,1.764l0,85c0,0.687 -0.278,1.31 -0.728,1.763l-0.005,0.004c0,0 -0.004,0.004 -0.004,0.004c-0.452,0.45 -1.075,0.728 -1.763,0.729l-5,0c0,0 -75,0 -75,0c0,0 -5,0 -5,0c-0.688,0 -1.311,-0.279 -1.763,-0.729l-0.004,-0.004c0,0 -0.005,-0.004 -0.005,-0.004c-0.45,-0.453 -0.728,-1.076 -0.728,-1.763c0,0 0,-85 0,-85c0,-0.688 0.278,-1.311 0.728,-1.763l0.005,-0.005c0,0 0.004,-0.004 0.004,-0.004c0.452,-0.45 1.075,-0.728 1.763,-0.728l85,0Zm-77.5,70l0,10l10,0l0,-10l-10,0Zm20,0l0,10l10,0l0,-10l-10,0Zm20,0l0,10l10,0l0,-10l-10,0Zm20,0l0,10l10,0l0,-10l-10,0Zm-60,-20l0,10l10,0l0,-10l-10,0Zm20,0l0,10l10,0l0,-10l-10,0Zm20,0l0,10l10,0l0,-10l-10,0Zm20,0l0,10l10,0l0,-10l-10,0Zm-60,-20l0,10l10,0l0,-10l-10,0Zm20,0l0,10l10,0l0,-10l-10,0Zm20,0l0,10l10,0l0,-10l-10,0Zm20,0l0,10l10,0l0,-10l-10,0Zm-60,-20l0,10l10,0l0,-10l-10,0Zm20,0l0,10l10,0l0,-10l-10,0Zm20,0l0,10l10,0l0,-10l-10,0Zm20,0l0,10l10,0l0,-10l-10,0Z"/>
</svg>
