<?xml version="1.0" encoding="UTF-8" standalone="no"?>
<!DOCTYPE svg PUBLIC "-//W3C//DTD SVG 1.1//EN" "http://www.w3.org/Graphics/SVG/1.1/DTD/svg11.dtd">
<svg width="100%" height="100%" viewBox="0 0 114 100" version="1.1" xmlns="http://www.w3.org/2000/svg" xmlns:xlink="http://www.w3.org/1999/xlink" xml:space="preserve" xmlns:serif="http://www.serif.com/" style="fill-rule:evenodd;clip-rule:evenodd;stroke-linejoin:round;stroke-miterlimit:1.41421;">
    <path d="M96.057,23.275l-3.252,0c-7.155,0 -13.659,-2.927 -14.634,-6.504c-0.976,-3.578 -7.48,-6.504 -14.634,-6.504l-13.009,0c-7.154,0 -13.658,2.926 -14.634,6.504c-0.975,3.577 -7.479,6.504 -14.634,6.504l-3.252,0c-7.154,0 -13.008,5.853 -13.008,13.008l0,40.975c0,7.155 5.854,13.009 13.008,13.009l78.049,0c7.154,0 13.008,-5.854 13.008,-13.009l0,-40.975c0,-7.155 -5.854,-13.008 -13.008,-13.008Zm-39.024,58.536c-14.309,0 -26.017,-11.707 -26.017,-26.016c0,-14.309 11.708,-26.016 26.017,-26.016c14.308,0 26.016,11.707 26.016,26.016c0,14.309 -11.708,26.016 -26.016,26.016Z" style="fill-rule:nonzero;"/>
</svg>
