<?xml version="1.0" encoding="UTF-8" standalone="no"?>
<!DOCTYPE svg PUBLIC "-//W3C//DTD SVG 1.1//EN" "http://www.w3.org/Graphics/SVG/1.1/DTD/svg11.dtd">
<svg width="100%" height="100%" viewBox="0 0 100 100" version="1.1" xmlns="http://www.w3.org/2000/svg" xmlns:xlink="http://www.w3.org/1999/xlink" xml:space="preserve" xmlns:serif="http://www.serif.com/" style="fill-rule:evenodd;clip-rule:evenodd;stroke-linejoin:round;stroke-miterlimit:1.41421;">
    <path d="M26.444,51.54l-13.766,0c-1.637,0 -3.109,-0.998 -3.715,-2.518c-0.607,-1.52 -0.226,-3.256 0.961,-4.383c11.226,-10.658 32.126,-30.5 38.239,-36.303c0.965,-0.916 2.478,-0.916 3.443,0c6.113,5.803 27.014,25.645 38.239,36.303c1.188,1.127 1.568,2.863 0.962,4.383c-0.607,1.52 -2.079,2.518 -3.716,2.518l-13.765,0l0,39.336c0,0.663 -0.264,1.299 -0.733,1.768c-0.468,0.469 -1.104,0.732 -1.767,0.732c-8.129,0 -33.754,0 -41.882,0c-0.663,0 -1.299,-0.263 -1.768,-0.732c-0.469,-0.469 -0.732,-1.105 -0.732,-1.768l0,-39.336Z"/>
</svg>
