<?xml version="1.0" encoding="UTF-8" standalone="no"?>
<!DOCTYPE svg PUBLIC "-//W3C//DTD SVG 1.1//EN" "http://www.w3.org/Graphics/SVG/1.1/DTD/svg11.dtd">
<svg width="100%" height="100%" viewBox="0 0 1000 1000" version="1.1" xmlns="http://www.w3.org/2000/svg" xmlns:xlink="http://www.w3.org/1999/xlink" xml:space="preserve" xmlns:serif="http://www.serif.com/" style="fill-rule:evenodd;clip-rule:evenodd;stroke-linejoin:round;stroke-miterlimit:1.41421;">
    <path d="M163.606,1000.98l179.33,-257.331c6.335,-8.55 16.405,-13.342 27.16,-12.739c17.134,1.963 17.713,6.551 21.989,12.629c7.121,10.121 8.162,22.061 0.077,34.414l-155.424,223.027l-73.132,0Zm261.877,0c-3.269,-8.719 -5.053,-18.157 -5.053,-28.009c0,-32.75 19.721,-60.929 47.925,-73.301c-0.204,-33.11 0.309,-66.228 0.309,-99.34c0.339,-16.844 10.015,-30.403 31.208,-29.976c4.938,0.299 6.544,0.831 9.43,1.925c11.103,4.211 18.527,13.446 19.337,26.843c0.665,32.998 0.296,66.007 0.111,99.014c30.193,11.446 51.68,40.651 51.68,74.835c0,9.852 -1.785,19.29 -5.054,28.009l-149.893,0Zm336.554,-212.943c-21.886,-18.846 -43.651,-37.837 -65.612,-56.594c-18.823,-16.744 -10.056,-52.865 20.15,-52.804c6.491,0.275 12.653,2.468 17.884,6.415c22.643,18.565 44.88,37.615 67.041,56.757c10.962,-5.65 23.395,-8.84 36.568,-8.84c44.153,0 80,35.846 80,80c0,44.153 -35.847,80 -80,80c-44.153,0 -80,-35.847 -80,-80c0,-8.705 1.393,-17.086 3.969,-24.934Zm-584.509,-123.12l83.877,-57.392c4.675,-2.399 6.657,-3.711 15.338,-3.631c25.809,1.488 41.391,40.182 13.335,56.336l-79.969,55.267c0.903,4.807 1.376,9.765 1.376,14.833c0,1.45 -0.039,2.892 -0.116,4.323c-2.249,42.146 -37.182,75.677 -79.884,75.677c-44.154,0 -80,-35.847 -80,-80c0,-44.154 35.846,-80 80,-80c17.135,0 33.02,5.399 46.043,14.587Zm340.026,-342.51c43.867,0.611 88.694,16.802 114.632,52.862c10.289,14.305 17.181,30.621 22.12,47.612c0.579,1.99 1.217,6.046 -3.279,7.513l-67.023,16.012c-6.359,0.999 -6.087,-4.212 -6.989,-7.539c-14.03,-49.844 -95.347,-69.826 -128.352,-14.104c-13.45,22.705 -15.511,50.761 -15.203,77.848c0.339,29.753 3.977,61.82 21.017,82.688c23.628,28.936 72.326,34.664 99.993,9.604c13.584,-12.304 20.591,-30.224 24.992,-47.542c0,0 0.734,-8.435 7.179,-6.962l65.651,20.816c6.388,2.58 2.985,7.336 1.819,11.285c-8.88,29.256 -23.654,57.125 -47.126,76.338c-71.218,58.296 -198.31,33.916 -238.559,-62.843c-11.481,-27.6 -15.2,-57.799 -14.713,-87.511c0.603,-36.824 7.892,-74.358 27.095,-105.343c27.227,-43.934 77.538,-69.878 132.536,-70.731c2.107,-0.011 2.102,-0.013 4.21,-0.003Zm482.876,-5.463l0,63.325l-218.189,73.638c-21.481,6.534 -24.654,-0.556 -31.577,-8.011c-13.413,-14.444 -7.983,-41.27 12.39,-48.838l237.376,-80.114Zm-836.359,103.19c-14.667,16.709 -36.179,27.264 -60.138,27.264c-44.153,0 -80,-35.847 -80,-80c0,-44.153 35.847,-80 80,-80c41.95,0 76.401,32.358 79.735,73.455c28.756,7.838 58.041,15.053 83.974,27.64c25.302,12.28 15.77,65.444 -21.138,55.892c-27.327,-8.136 -55.967,-14.423 -82.433,-24.251Zm691.085,-419.154l145.274,0l0,67.069c-12.772,27.205 -40.425,46.061 -72.448,46.061c-9.813,0 -19.216,-1.771 -27.906,-5.01l-178.641,169.593c-22.499,20.267 -73.213,-11.598 -41.31,-43.514l175.603,-166.708c-4.966,-10.413 -7.746,-22.065 -7.746,-34.361c0,-11.813 2.566,-23.031 7.174,-33.13Zm-599.911,0c0.501,0.731 0.973,1.486 1.416,2.262l116.771,217.445c6.884,13.681 4.137,17.022 2.178,23.228c-6.747,21.361 -41.521,28.797 -55.038,5.159l-116.771,-217.446c-6.073,-12.069 -3.998,-15.077 -2.975,-20.135c0.775,-3.839 2.178,-7.387 4.149,-10.513l50.27,0Zm217.048,166.583c-30.29,-11.397 -51.863,-40.651 -51.863,-74.904c0,-44.153 35.846,-80 80,-80c44.153,0 80,35.847 80,80c0,33.57 -20.722,62.339 -50.062,74.201c0.025,0.351 0.043,0.704 0.054,1.058c0.302,28.443 1.32,63.438 -28.72,64.714c-15.817,0.672 -30.748,-13.072 -31.266,-29.336c-0.128,-12.065 -0.106,-24.789 1.857,-35.733Z" style="fill-rule:nonzero;"/>
</svg>
