<?xml version="1.0" encoding="UTF-8" standalone="no"?>
<!DOCTYPE svg PUBLIC "-//W3C//DTD SVG 1.1//EN" "http://www.w3.org/Graphics/SVG/1.1/DTD/svg11.dtd">
<svg width="100%" height="100%" viewBox="0 0 100 100" version="1.1" xmlns="http://www.w3.org/2000/svg" xmlns:xlink="http://www.w3.org/1999/xlink" xml:space="preserve" xmlns:serif="http://www.serif.com/" style="fill-rule:evenodd;clip-rule:evenodd;stroke-linejoin:round;stroke-miterlimit:1.41421;">
    <path d="M73.814,76.87c0,0.663 -0.263,1.299 -0.732,1.768c-0.469,0.469 -1.105,0.732 -1.768,0.732c-9.548,0 -43.658,0 -53.207,0c-0.663,0 -1.298,-0.263 -1.767,-0.732c-0.469,-0.469 -0.733,-1.105 -0.733,-1.768c0,-7.511 0,-29.821 0,-37.332c0,-0.663 0.264,-1.299 0.733,-1.768c0.469,-0.469 1.104,-0.732 1.767,-0.732c1.37,0 2.792,0 2.792,0c5.292,-5.292 10.583,-9.79 15.875,-10.583c0,0 -17.807,0 -26.75,0c-2.761,0 -5,2.238 -5,5c0,11.868 0,41.63 0,53.498c0,1.326 0.527,2.598 1.465,3.536c0.938,0.937 2.209,1.464 3.535,1.464c14.274,0 55.1,0 69.373,0c2.762,0 5,-2.239 5,-5c0,-7.669 0,-21.458 0,-21.458l-10.583,10.583c0,0 0,1.422 0,2.792Zm-47.623,-8.083c10.583,-21.166 37.04,-18.52 37.04,-18.52l0,18.52l31.749,-29.104l-31.749,-29.103l0,15.875c-37.04,0 -37.04,42.332 -37.04,42.332Z" style="fill-rule:nonzero;"/>
</svg>
