<?xml version="1.0" encoding="UTF-8" standalone="no"?>
<!DOCTYPE svg PUBLIC "-//W3C//DTD SVG 1.1//EN" "http://www.w3.org/Graphics/SVG/1.1/DTD/svg11.dtd">
<svg width="100%" height="100%" viewBox="0 0 100 100" version="1.1" xmlns="http://www.w3.org/2000/svg" xmlns:xlink="http://www.w3.org/1999/xlink" xml:space="preserve" xmlns:serif="http://www.serif.com/" style="fill-rule:evenodd;clip-rule:evenodd;stroke-linejoin:round;stroke-miterlimit:1.41421;">
    <path d="M82.809,81.761c1.756,0.096 2.754,2.337 1.114,3.857c-4.347,3.958 -9.825,6.588 -15.374,8.306c-2.221,0.563 -4.103,-2.942 -0.36,-4.304c4.747,-1.76 9.52,-3.884 13.125,-7.289c0,0 0.527,-0.572 1.495,-0.57Zm-69.656,-6.573c3.112,0.197 4.435,6.116 9.737,8.512c2.403,1.086 2.129,5.664 -2.003,3.681c-4.023,-1.93 -7.506,-5.438 -9.647,-9.083c-0.711,-1.338 0.16,-3.147 1.913,-3.11Zm62.28,-9.751c4.252,0.262 7.167,5.983 3.657,9.558c-5.28,5.376 -12.396,9.136 -19.936,10.397c-4.97,0.831 -9.502,-6.04 -4.92,-9.755c1.521,-1.233 3.697,-1.262 5.692,-1.849c4.291,-1.264 8.253,-3.657 11.387,-6.792c0,0 1.72,-1.623 4.12,-1.559Zm-53.71,-3.632c4.998,0.186 7.443,6.439 12.548,10.074c4.598,3.455 0.673,14.618 -8.558,7.622c-4.633,-3.511 -10.667,-8.045 -9.586,-13.254c0.53,-2.556 2.654,-4.476 5.596,-4.442Zm28.345,-38.519c12.572,0 22.778,10.206 22.778,22.778c0,12.571 -10.206,22.778 -22.778,22.778c-12.571,0 -22.778,-10.207 -22.778,-22.778c0,-12.572 10.207,-22.778 22.778,-22.778Zm20.799,-11.662c2.336,0.115 4.327,1.874 6.199,3.564c4.925,4.442 8.179,10.669 9.561,17.248c0,0 0.346,2.203 -0.725,3.815c-2.15,3.238 -7.642,2.41 -8.765,-2.485c-1.249,-5.212 -4.07,-10.206 -8.589,-12.856c-0.625,-0.367 -0.619,-0.377 -0.876,-0.597c-2.939,-2.524 -1.861,-8.747 3.195,-8.689Zm-36.53,-3.013c4.971,0.303 7.627,7.723 1.55,10.92c-5.886,3.182 -10.418,8.794 -12.531,15.018c0,0 -0.941,2.271 -2.917,3.179c-4.214,1.938 -9.382,-2.569 -7.065,-8.34c3.383,-8.425 9.625,-15.842 17.927,-20.042c0.952,-0.482 1.506,-0.773 3.036,-0.735Zm-13.878,-2.594c1.881,0.152 2.744,2.616 0.377,4.286c-4.256,3.05 -7.723,7.183 -10.118,11.841c0,0 -0.902,1.223 -2.098,1.072c-4.394,-0.557 2.937,-11.721 10.554,-16.847c0,0 0.401,-0.38 1.285,-0.352Zm62.27,1.106c1.358,0.089 2.501,1.305 3.62,2.364c2.974,2.811 5.326,6.397 6.318,10.27c0.456,2.193 -3.067,3.777 -4.254,0.458c-1.392,-3.81 -4.048,-7.032 -7.087,-9.376c-1.331,-1.127 -0.595,-3.755 1.403,-3.716Z"/>
</svg>
