<?xml version="1.0" encoding="UTF-8" standalone="no"?>
<!DOCTYPE svg PUBLIC "-//W3C//DTD SVG 1.1//EN" "http://www.w3.org/Graphics/SVG/1.1/DTD/svg11.dtd">
<svg width="100%" height="100%" viewBox="0 0 100 100" version="1.1" xmlns="http://www.w3.org/2000/svg" xmlns:xlink="http://www.w3.org/1999/xlink" xml:space="preserve" xmlns:serif="http://www.serif.com/" style="fill-rule:evenodd;clip-rule:evenodd;stroke-linejoin:round;stroke-miterlimit:1.41421;">
    <path d="M26.444,49.538l0,-39.336c0,-0.663 0.263,-1.299 0.732,-1.768c0.469,-0.469 1.105,-0.732 1.768,-0.732c8.128,0 33.753,0 41.882,0c0.663,0 1.299,0.263 1.767,0.732c0.469,0.469 0.733,1.105 0.733,1.768l0,39.336l13.765,0c1.637,0 3.109,0.998 3.716,2.518c0.606,1.52 0.226,3.256 -0.962,4.383c-11.225,10.658 -32.126,30.5 -38.239,36.303c-0.965,0.916 -2.478,0.916 -3.443,0c-6.113,-5.803 -27.013,-25.645 -38.239,-36.303c-1.187,-1.127 -1.568,-2.863 -0.961,-4.383c0.606,-1.52 2.078,-2.518 3.715,-2.518l13.766,0Z"/>
</svg>
