<?xml version="1.0" encoding="UTF-8" standalone="no"?>
<!DOCTYPE svg PUBLIC "-//W3C//DTD SVG 1.1//EN" "http://www.w3.org/Graphics/SVG/1.1/DTD/svg11.dtd">
<svg width="100%" height="100%" viewBox="0 0 100 100" version="1.1" xmlns="http://www.w3.org/2000/svg" xmlns:xlink="http://www.w3.org/1999/xlink" xml:space="preserve" xmlns:serif="http://www.serif.com/" style="fill-rule:evenodd;clip-rule:evenodd;stroke-linejoin:round;stroke-miterlimit:1.41421;">
    <path d="M79.547,66.992l-2.215,-2.002l12.826,-4.642l-3.326,13.229l-2.462,-2.226l-14.312,15.276c0.216,0.661 0.332,1.365 0.332,2.097c0,3.726 -3.025,6.751 -6.751,6.751c-3.725,0 -6.75,-3.025 -6.75,-6.751c0,-3.725 3.025,-6.75 6.75,-6.75c0.578,0 1.14,0.072 1.675,0.209l14.233,-15.191Zm-33.597,-3.455l-2.511,-2.224l13.45,-5.205l-3.544,13.98l-2.529,-2.241l-13.033,14.276c0.24,0.695 0.371,1.441 0.371,2.217c0,3.75 -3.045,6.795 -6.795,6.795c-3.751,0 -6.795,-3.045 -6.795,-6.795c0,-3.751 3.044,-6.795 6.795,-6.795c0.559,0 1.103,0.068 1.624,0.195l12.967,-14.203Zm-26.643,-5.541l-2.177,-2.176l12.921,-3.952l-3.951,12.921l-2.164,-2.164c-0.756,0.756 -1.514,1.51 -2.274,2.262c0.178,0.608 0.274,1.251 0.274,1.916c0,3.763 -3.056,6.819 -6.819,6.819c-3.764,0 -6.819,-3.056 -6.819,-6.819c0,-3.764 3.055,-6.819 6.819,-6.819c0.662,0 1.303,0.094 1.909,0.271c0.759,-0.754 1.52,-1.506 2.281,-2.259Zm58.599,-32.422l-3.187,-1.007l10.194,-10.006l2.593,14.047l-3.4,-1.075l-5.9,17.224c1.103,1.206 1.776,2.811 1.776,4.573c0,3.741 -3.037,6.778 -6.778,6.778c-3.741,0 -6.779,-3.037 -6.779,-6.778c0,-3.351 2.436,-6.136 5.632,-6.682l5.849,-17.074Zm-19.225,-1.877l-6.337,1.144c-0.213,-1.266 -0.697,-2.219 -1.452,-2.859c-0.755,-0.641 -1.735,-0.961 -2.939,-0.961c-1.602,0 -2.879,0.553 -3.832,1.659c-0.953,1.105 -1.43,2.954 -1.43,5.547c0,2.882 0.485,4.918 1.453,6.107c0.968,1.19 2.268,1.784 3.9,1.784c1.22,0 2.219,-0.347 2.997,-1.04c0.777,-0.694 1.326,-1.888 1.647,-3.58l6.313,1.075c-0.656,2.897 -1.914,5.086 -3.774,6.565c-1.861,1.479 -4.354,2.219 -7.48,2.219c-3.554,0 -6.386,-1.121 -8.498,-3.363c-2.112,-2.242 -3.168,-5.345 -3.168,-9.31c0,-4.011 1.059,-7.133 3.179,-9.367c2.12,-2.234 4.987,-3.351 8.601,-3.351c2.959,0 5.311,0.636 7.057,1.91c1.746,1.273 3,3.214 3.763,5.821Zm-43.612,17.111l-6.771,0l0,-33.535l10.865,0c4.118,0 6.802,0.168 8.052,0.504c1.922,0.503 3.53,1.597 4.827,3.282c1.296,1.685 1.944,3.862 1.944,6.531c0,2.059 -0.374,3.789 -1.121,5.192c-0.747,1.403 -1.696,2.505 -2.848,3.306c-1.151,0.8 -2.322,1.33 -3.511,1.59c-1.616,0.32 -3.957,0.48 -7.023,0.48l-4.414,0l0,12.65Zm3.271,-27.862l-3.271,0l0,9.516l3.705,0c2.669,0 4.453,-0.175 5.353,-0.526c0.9,-0.351 1.605,-0.9 2.116,-1.647c0.511,-0.747 0.766,-1.616 0.766,-2.608c0,-1.22 -0.358,-2.226 -1.075,-3.019c-0.717,-0.793 -1.624,-1.289 -2.722,-1.487c-0.808,-0.152 -2.432,-0.229 -4.872,-0.229Z" style="fill-rule:nonzero;"/>
</svg>
